<svg xmlns="http://www.w3.org/2000/svg" width="4426" height="447" viewBox="0 0 4426 447" fill="none"><g clip-path="url(#clip0_1_2)"><path opacity="0.33" d="M2332.5 146.169C3234.96 -248.532 3496.98 298.149 3750.15 146.169C4133.88 -85.3768 4426 180.141 4426 180.141L4426 447L-0.000118256 447L-9.49261e-05 180.141C-9.49261e-05 180.141 274.855 63.4738 420.027 49.1699C565.2 34.4189 697.98 104.151 755.518 147.957C858.644 225.288 1127.3 408.111 1350.37 425.991C1573.44 443.871 2246.64 183.27 2332.5 146.169Z" fill="#173E63"></path><path opacity="0.66" d="M1177.32 146.169C1378.7 146.169 1519 249.873 1748.71 320.946C1875.3 359.835 2413.94 366.093 2872.92 146.169C3331.89 -73.7549 3278.78 299.937 3533.28 146.169C3913.91 -81.8009 4426 269.094 4426 269.094L4426 447L-0.000118256 447L-0.000103992 283.845C-0.000103992 283.845 124.813 366.54 407.634 366.54C840.055 366.093 992.752 146.169 1177.32 146.169Z" fill="#173E63"></path><path d="M1035.24 317.817C1920.44 574.842 2212.56 25.032 2783.95 230.652C3354.91 438.954 3354.91 422.862 3608.08 354.918C3859.47 286.974 3840.44 246.297 4028.1 212.325C4299.42 162.261 4426 447 4426 447L-0.000118256 447C-0.000118256 447 43.8172 264.177 370.013 231.993C696.21 199.809 754.19 236.91 1035.24 317.817Z" fill="#173E63"></path></g><defs><clipPath id="clip0_1_2"><rect width="4426" height="447" fill="white" transform="translate(4426 447) rotate(-180)"></rect></clipPath></defs></svg>