<svg xmlns="http://www.w3.org/2000/svg" width="1800" height="180" viewBox="0 0 1800 180" fill="none"><g clip-path="url(#clip0_2_6)"><path opacity="0.33" d="M948.6 58.86C1315.62 -100.08 1422.18 120.06 1525.14 58.8601C1681.2 -34.3799 1800 72.5401 1800 72.5401L1800 180L4.00543e-05 180L4.94488e-05 72.54C4.94488e-05 72.54 111.78 25.56 170.82 19.8C229.86 13.86 283.86 41.94 307.26 59.58C349.2 90.72 458.46 164.34 549.18 171.54C639.9 178.74 913.68 73.8 948.6 58.86Z" fill="white"></path><path opacity="0.66" d="M478.8 58.86C560.7 58.86 617.76 100.62 711.18 129.24C762.66 144.9 981.72 147.42 1168.38 58.8601C1355.04 -29.6999 1333.44 120.78 1436.94 58.8601C1591.74 -32.9399 1800 108.36 1800 108.36L1800 180L4.00543e-05 180L4.5798e-05 114.3C4.5798e-05 114.3 50.76 147.6 165.78 147.6C341.64 147.42 403.74 58.86 478.8 58.86Z" fill="white"></path><path d="M421.02 127.98C781.02 231.48 899.82 10.08 1132.2 92.8801C1364.4 176.76 1364.4 170.28 1467.36 142.92C1569.6 115.56 1561.86 99.1801 1638.18 85.5001C1748.52 65.3401 1800 180 1800 180L4.00543e-05 180C4.00543e-05 180 17.82 106.38 150.48 93.42C283.14 80.46 306.72 95.4 421.02 127.98Z" fill="white"></path></g><defs><clipPath id="clip0_2_6"><rect width="1800" height="180" fill="white" transform="translate(1800 180) rotate(-180)"></rect></clipPath></defs></svg>