<svg xmlns="http://www.w3.org/2000/svg" width="1920" height="700" viewBox="0 0 1920 700" fill="none"><g clip-path="url(#clip0_14_13)"><g clip-path="url(#clip1_14_13)"><path opacity="0.33" d="M888.031 178.345C348.308 412.34 191.605 88.2449 40.1969 178.345C-189.298 315.615 -364 158.205 -364 158.205V0L2283 0V158.205C2283 158.205 2118.62 227.37 2031.8 235.85C1944.98 244.595 1865.57 203.255 1831.16 177.285C1769.48 131.44 1608.81 23.055 1475.4 12.455C1341.99 1.855 939.383 156.35 888.031 178.345Z" fill="white"></path><path opacity="0.66" d="M1578.9 178.345C1458.46 178.345 1374.55 116.865 1237.17 74.7299C1161.47 51.675 839.326 47.965 564.832 178.345C290.338 308.725 322.102 87.1849 169.9 178.345C-57.7421 313.495 -364 105.47 -364 105.47V0L2283 0V96.7249C2283 96.7249 2208.35 47.7 2039.21 47.7C1780.6 47.965 1689.28 178.345 1578.9 178.345Z" fill="white"></path><path d="M1663.87 76.5849C1134.47 -75.7899 959.765 250.16 618.037 128.26C276.574 4.77 276.574 14.31 125.166 54.5899C-25.184 94.8699 -13.8019 118.985 -126.035 139.125C-288.296 168.805 -364 0 -364 0L2283 0C2283 0 2256.79 108.385 2061.71 127.465C1866.63 146.545 1831.95 124.55 1663.87 76.5849Z" fill="white"></path></g><g clip-path="url(#clip2_14_13)"><path opacity="0.33" d="M1030.97 521.655C1570.69 287.66 1727.39 611.755 1878.8 521.655C2108.3 384.385 2283 541.795 2283 541.795L2283 700L-364 700L-364 541.795C-364 541.795 -199.621 472.63 -112.8 464.15C-25.9781 455.405 53.4319 496.745 87.8429 522.715C149.518 568.56 310.191 676.945 443.6 687.545C577.008 698.145 979.617 543.65 1030.97 521.655Z" fill="white"></path><path opacity="0.66" d="M340.102 521.655C460.54 521.655 544.45 583.135 681.83 625.27C757.534 648.325 1079.67 652.035 1354.17 521.655C1628.66 391.275 1596.9 612.815 1749.1 521.655C1976.74 386.505 2283 594.53 2283 594.53L2283 700L-364 700L-364 603.275C-364 603.275 -289.355 652.3 -120.211 652.3C138.4 652.035 229.722 521.655 340.102 521.655Z" fill="white"></path><path d="M255.133 623.415C784.533 775.79 959.235 449.84 1300.96 571.74C1642.43 695.23 1642.43 685.69 1793.83 645.41C1944.18 605.13 1932.8 581.015 2045.03 560.875C2207.3 531.195 2283 700 2283 700L-364 700C-364 700 -337.795 591.615 -142.711 572.535C52.373 553.455 87.0488 575.45 255.133 623.415Z" fill="white"></path></g></g><defs><clipPath id="clip0_14_13"><rect width="1920" height="700" fill="white"></rect></clipPath><clipPath id="clip1_14_13"><rect width="2647" height="265" fill="white" transform="translate(-364)"></rect></clipPath><clipPath id="clip2_14_13"><rect width="2647" height="265" fill="white" transform="translate(2283 700) rotate(-180)"></rect></clipPath></defs></svg>